<?xml version="1.0" encoding="UTF-8"?>
<svg version="1.1" viewBox="0 0 2048 1518" width="1280" height="1280" xmlns="http://www.w3.org/2000/svg">
<path transform="translate(791,565)" d="m0 0h57l15 2 18 8 13 9 8 9 6 12 5 21v15l-4 19-5 13-7 10-10 9-10 5-17 6-18 2-81 1-8 1 2 13 6 18 7 11 11 10 11 4 28 7h10l25-6 16-3 5-2h8l12 5 5 5 5 8 2 5v6l-4 5-15 4-23 6-19 2h-49l-17-2-24-9-11-7-12-11-9-11-8-14-4-10-6-22-1-6-1-16v-31l2-14 8-27 9-17 8-10 8-9 12-9 16-8 17-6zm20 33-16 5-11 4-10 8-6 7-7 11-5 15-2 10v12l5 2h57l30-8 6-3 7-6 3-6 2-8v-16l-4-11-8-7-13-5-14-4z" fill="#FDFDFD"/>
<path transform="translate(541,564)" d="m0 0h19l16 2 10 4 13 8 6 5 9 14 6 13 3 12 2 16 1 26v101l1 21v17l-6 2h-15l-9-2-11-7-7-9-3-7-2-17-1-123-4-17-4-8-8-7-15-6-10-3h-9l-16 4-16 6-14 10-7 8-1 132-1 18-4 10-8 9-10 6-11 3h-11l-7-3-2-3v-9l4-27 1-24v-83l-1-49-4-24v-6l3-3 3-1h18l9 3 10 8 7 8 5-2 19-13 16-8 9-3z" fill="#FEFEFE"/>
<path transform="translate(1259,573)" d="m0 0h15l10 3 10 8 6 9 5 12 1 4v125l2 11 6 10 9 8 13 6 12 2 19-5 16-5 10-6 11-7 3-3 1-4 1-141 4-10 8-9 10-6 10-2h9l10 2 1 1v9l-3 22-1 34v111l2 17 2 11v11l-5 4-3 1h-17l-11-4-8-7-5-8-5 1-11 8-10 7-15 8-8 3-7 1h-49l-10-3-15-8-9-8-7-10-5-11-5-17-2-18-2-112-1-25v-16l4-3z" fill="#FEFEFE"/>
<path transform="translate(1605,565)" d="m0 0h61l30 1 11 4 7 5 2 7-3 14-6 8-8 5-5 2h-11l-18-5-17-5-6-2h-13l-19 5-10 4-7 8-2 7 1 8 6 9 7 6 15 8 19 5 10 4 18 3 21 9 11 8 11 11 9 14 3 8 1 6v24l-2 10-4 10-8 12-9 9-13 8-22 8-11 2h-68l-18-2-25-7-6-4-1-5 5-17 6-8 6-5 10-2 17 1 9 4 21 6 12 4h12l14-5 12-3 4-2 1-2h2l2-4 4-9v-14l-5-9-8-7-12-7-18-6-11-4-15-2-24-9-12-8-10-9-6-7-7-12-3-9v-19l4-12 6-12 8-10 9-9 13-8 16-6z" fill="#FEFEFE"/>
<path transform="translate(994,573)" d="m0 0 19 1 11 4 10 8 9 12 9 15 12 19 6 10 8 9 3 1 2-5 10-17 14-22 10-15 8-10 10-7 4-2 6-1h28l11 2 1 2-8 11-12 14-10 13-18 27-9 13-11 15-9 14 3 9 13 19 14 21 11 15 13 18 10 13 12 15 3 7-3 3-2 1-9 1h-23l-11-2-10-6-9-9-16-24-10-16-14-22-5-1-6 5-12 20-13 20-10 15-7 8-8 6-6 3-4 1-15 1h-14l-9-1-2-1v-5l9-12 11-13 13-18 26-38 14-20 2-5v-7l-7-12-14-21-12-19-13-18-12-16-8-10-8-11v-3l3-1z" fill="#FDFDFD"/>
<path transform="translate(541,564)" d="m0 0h19l16 2 10 4 13 8 6 5 9 14 6 13 3 12 2 16 1 26v101l1 21v17l-6 2h-15l-9-2-11-7-7-9-3-7-2-17-1-123-4-17-4-8-8-7-15-6-10-3h-9l-16 4-16 6-14 10-7 8-1 132-1 18-4 10-8 9-10 6-11 3h-11l-7-3-2-3v-9l4-27 1-24v-83l-1-49-4-24v-6l3-3 3-1h18l9 3 10 8 7 8 5-2 19-13 16-8 9-3zm-13 4-16 4-18 8-9 6-11 9-8 6-4-1-7-11-7-7-11-6-7-1-7 2-1 5 1 12 2 18 1 20v125l-3 41 2 2h10l12-5 7-5 6-12 1-3 1-22v-85l1-34 2-9 7-8 7-6 14-8 9-4 8-2h33l12 4 11 8 2 3h2l2 5 6 12 2 18 1 121 3 13 6 8 6 5 10 5 3 1h8l2-2v-12l-1-18-1-128-2-20-5-17-6-10-11-12-7-5-20-7-6-1z" fill="#D6D4D1"/>
<path transform="translate(1259,573)" d="m0 0h15l10 3 10 8 6 9 5 12 1 4v125l2 11 6 10 9 8 13 6 12 2 19-5 16-5 10-6 11-7 3-3 1-4 1-141 4-10 8-9 10-6 10-2h9l1 3-10 2-12 6-10 9-3 6-1 8-1 28v98l-1 9-3 6-4 5-14 10-10 5-13 5-4 1h-33l-11-4-9-6-6-7-5-7-3-11-1-8-1-126-3-10-9-10-12-6-5-2h-8l2 54 2 114 5 19 6 11 6 8 2 1v2l4 2 10 6 15 5 9 2h14l18-2 22-6 12-7 10-8 14-10 5 1 6 12 14 8 9 5h6l1-1v-20l-1-6-2-40v-87l2-33 1-7 1-26 8 1 1 1v9l-3 22-1 34v111l2 17 2 11v11l-5 4-3 1h-17l-11-4-8-7-5-8-5 1-11 8-10 7-15 8-8 3-7 1h-49l-10-3-15-8-9-8-7-10-5-11-5-17-2-18-2-112-1-25v-16l4-3z" fill="#D6D4D1"/>
<path transform="translate(1145,573)" d="m0 0h28l11 2 1 2-8 11-12 14-10 13-18 27-9 13-11 15-9 14 3 9 13 19 14 21 11 15 13 18 10 13 12 15 3 7-3 3-2 1-9 1h-23l-11-2-10-6-9-9-16-24-10-16-14-22-5-1-6 5-12 20-13 20-10 15-7 8-8 6-6 3-4 1-15 1h-14l-9-1-2-1v-5l9-12 11-13 13-18 26-38 14-20 2-5v-7l-7-12-14-21-12-19-13-18-12-16-8-10-8-11v-3l3-1h16v1h-12l3 5 9 10 7 10 10 13 11 16 8 12 15 22 6 9 1 4h2l3 6v12l-7 12-10 14-11 17-13 19-13 17-14 18-5 7 3 3h20l10-4 9-6 6-7 2-1 5-9 10-15 5-7 4-7 10-16 6-8 9-2 6 3 7 10 6 9 7 10 18 27 6 8 7 7 9 5 14 3 18-1-4-7-14-17-12-17-10-14-7-11-8-12-13-19-3-5-5-9-1-5 6-10 11-16 13-19 12-17 7-10 8-11h2l2-5 11-13 4-8-26 2-12 5-8 6h-2l-2 4-8 11-5 9-10 15-10 16-8 12-3 3-7-2-4-3v-2h-2l-12-18-8-13-19-28-8-9-11-6 4-2 6 1 11 7 8 9 12 19 11 18 8 13 8 9 3 1 2-5 10-17 14-22 10-15 8-10 10-7 4-2z" fill="#D4D2CF"/>
<path transform="translate(1605,565)" d="m0 0h37v1l-24 3-18 4-16 6-10 6-10 9-8 11-5 15v24l4 14 9 13 3 1 5 5 12 5 32 11 10 2 11 3 9 4 12 5 6 4 10 9 6 10 1 3v11l-4 10-6 8-11 8-7 3-5 1h-41l-12-3-7-3-15-5-4-3h-8l-9 7-6 9-1 2-1 10h2v3l14 3 12 2 14 3 8 2h43l16-2 23-6 5-2h3v-2l9-5 10-9 7-10 3-9 1-7v-25l-4-16-6-10-13-13-8-6-10-4-7-2-10-5-18-2-10-5-15-4-14-8-9-7-5-8-2-6v-7l3-8 7-8 12-7 15-3h22l18 2 15 5 10 2h10l6-3 5-7 3-8v-10l-27-4-10-3 1-3h23l11 4 7 5 2 7-3 14-6 8-8 5-5 2h-11l-18-5-17-5-6-2h-13l-19 5-10 4-7 8-2 7 1 8 6 9 7 6 15 8 19 5 10 4 18 3 21 9 11 8 11 11 9 14 3 8 1 6v24l-2 10-4 10-8 12-9 9-13 8-22 8-11 2h-68l-18-2-25-7-6-4-1-5 5-17 6-8 6-5 10-2 17 1 9 4 21 6 12 4h12l14-5 12-3 4-2 1-2h2l2-4 4-9v-14l-5-9-8-7-12-7-18-6-11-4-15-2-24-9-12-8-10-9-6-7-7-12-3-9v-19l4-12 6-12 8-10 9-9 13-8 16-6z" fill="#D4D2CF"/>
<path transform="translate(791,565)" d="m0 0h57l15 2 18 8 13 9 8 9 6 12 5 21v15l-4 19-5 13-7 10-10 9-10 5-17 6-5 1h-8l3-4 20-7 10-5 4-3h2v-2l6-5 6-10 4-11 2-13v-14l-2-16-5-14-7-9-8-8-10-6-10-3-14-4-14-2h-18l-21 2-25 7-15 8-12 9-3 1-2 4-8 10-8 13-5 15-3 11-3 28v26l1 14 5 23 6 14 10 15 2 4h2l5 5 9 7 16 8 19 6 11 3h40l19-3 12-3 21-3 7-5 1-5-3-6-4-5-5-3h-19l-13 4-10 2h-40l-10-2-20-9-12-11-7-10-6-16-2-16 3-5 1-1h14l-3 2-8 1 2 13 6 18 7 11 11 10 11 4 28 7h10l25-6 16-3 5-2h8l12 5 5 5 5 8 2 5v6l-4 5-15 4-23 6-19 2h-49l-17-2-24-9-11-7-12-11-9-11-8-14-4-10-6-22-1-6-1-16v-31l2-14 8-27 9-17 8-10 8-9 12-9 16-8 17-6z" fill="#D5D3D0"/>
<path transform="translate(1145,573)" d="m0 0h28l11 2 1 2-8 11-12 14-10 13-18 27-9 13-11 15-9 14 3 9 13 19 14 21 11 15 13 18 10 13 12 15 3 7-3 3-2 1-9 1h-23l-11-2-10-6-9-9-16-24-10-16-4-6v-4l3 1 11 16 11 17 10 14 5 5 9 6 9 4h24l6-1-1-6-7-9v-2h-2l-4-6-12-16-11-15-11-17-4-6-8-11-4-6-7-10-4-9 1-6 1-3h2l2-5 10-16 10-15 14-20 12-16 14-19 4-5 2-8-26 2-12 5-8 6h-2l-2 4-8 11-5 9-10 15-10 16-8 12-3 3-7-2-4-3v-2h-2l-12-18-8-13-19-28-8-9-11-6 4-2 6 1 11 7 8 9 12 19 11 18 8 13 8 9 3 1 2-5 10-17 14-22 10-15 8-10 10-7 4-2z" fill="#B9B7B2"/>
<path transform="translate(1605,565)" d="m0 0h37v1l-24 3-18 4-16 6-10 6-10 9-8 11-5 15v24l4 14 9 13 3 1 5 5 12 5 32 11 10 2 11 3 9 4 12 5 6 4 10 9 6 10 1 3v11l-4 10-6 8-11 8-7 3-5 1h-41l-12-3-7-3-15-5-4-3h-8l-9 7-6 9-1 2-1 10h2v3l14 3 12 2 14 3 8 2 3 2h-12l-9-2-13-4-17-2-4-5v-13l4-9h2l2-4 4-3h2l-1-5 15-1 13 2 8 4 19 5 12 4h12l14-5 12-3 4-2 1-2h2l2-4 4-9v-14l-5-9-8-7-12-7-18-6-11-4-15-2-24-9-12-8-10-9-6-7-7-12-3-9v-19l4-12 6-12 8-10 9-9 13-8 16-6z" fill="#D6D4D1"/>
<path transform="translate(1441,573)" d="m0 0h9l1 3-10 2-12 6-10 9-3 6-1 8-1 28v98l-1 9-3 6-4 5-14 10-10 5-13 5-4 1h-33l-11-4-9-6-6-7-5-7-3-11-1-8-1-126-3-10-9-10-9-5 3-1 10 6 7 9 3 7 1 6 1 120 2 13 4 11 8 10 7 5 13 5 4 1v-2l10 1 19-5 16-5 10-6 11-7 3-3 1-4 1-141 4-10 8-9 10-6z" fill="#D5D3D0"/>
<path transform="translate(812,595)" d="m0 0 25 1 13 4 10 7 7 8 3 7 1 5v16l-3 10-9 10-9 5-8 4-6 2-58 1h-21l-7-1-3-4v-18l4-15 6-12 8-11 11-9 14-7 8-2zm-1 3-16 5-11 4-10 8-6 7-7 11-5 15-2 10v12l5 2h57l30-8 6-3 7-6 3-6 2-8v-16l-4-11-8-7-13-5-14-4z" fill="#D5D3D0"/>
<path transform="translate(1253,582)" d="m0 0h3l1 2 3 72 1 95 3 11 5 11 10 13 11 8 19 7 4 1h36l19-5 12-4 11-8 9-7 6-3 5-3 3 1 4 8-1 3-5-7-5 1-11 8-10 7-15 8-8 3-7 1h-49l-10-3-15-8-9-8-7-10-5-11-5-17-2-18-2-112v-35z" fill="#B8B6B1"/>
<path transform="translate(1662,666)" d="m0 0 8 1 18 8 11 8 11 11 9 14 3 8 1 6v24l-2 10-4 10-8 12-9 9-13 8-22 8-11 2h-68l-18-2-25-7-6-4-1-5 5-17 6-8 6-5h3v4l-6 4-2 3h-2l-1 4-2 5v13l3 4 17 2 5 2 8 2 9 2 52-1 16-2 23-6 5-2h3v-2l9-5 12-11 5-4 5-11 2-7v-21l-4-18-4-10-6-10-6-7-7-4-6-3-4-3-13-3-5-4z" fill="#D5D3D0"/>
<path transform="translate(750,704)" d="m0 0h14l-3 2-8 1 2 13 6 18 7 11 11 10 11 4 28 7h10l25-6 16-3 5-2h8l12 5 5 5 5 8 2 5v6l-4 5-6 1 1-5 2-4-1-8-7-8-3-2-22 1-13 4-10 2h-40l-10-2-20-9-12-11-7-10-6-16-2-16 3-5z" fill="#D6D4D1"/>
<path transform="translate(1145,573)" d="m0 0h28l8 1-3 3h-2v3h-2l1-5-26 2-12 5-8 6h-2l-2 4-8 11-5 9-10 15-10 16-8 12-3 3-7-2-4-3v-2h-2l-12-18-8-13-19-28-8-9-11-6 4-2 6 1 11 7 8 9 12 19 11 18 8 13 8 9 3 1 2-5 10-17 14-22 10-15 8-10 10-7 4-2z" fill="#D5D3D0"/>
<path transform="translate(531,596)" d="m0 0h12l9 3v2l4 2 8 6 8 10 4 9 3 23 1 119 2 8 6 11 7 6 13 6 14 2 1-2 1 3-3 1h-15l-9-2-11-7-7-9-3-7-2-17-1-123-4-17-4-8-8-7-15-6-10-3h-9l-16 4-16 6h-4l4-4 9-3v-2l8-1h3v-2z" fill="#B9B7B2"/>
<path transform="translate(1264,573)" d="m0 0h10l10 3 10 8 6 9 5 12 1 4v125l2 11 6 10 9 8 15 7v2l-6-1-11-4-10-8-7-10-4-13-1-9-1-120-2-8-4-8-5-6-16-8-10-2z" fill="#B8B6B1"/>
<path transform="translate(855,567)" d="m0 0 11 1 16 8 11 7 9 10 6 12 5 21v15l-4 19-5 13-7 10-10 9-10 5-17 6-5 1h-8l3-4 20-7 10-5 4-3h2v-2l6-5 6-10 4-11 2-13v-14l-2-16-5-14-7-9-8-8-10-6-10-3-2-1v-2l-5-1z" fill="#BAB8B4"/>
<path transform="translate(573,571)" d="m0 0 9 1 13 7 7 6 6 8 4 7 6 22 1 9 1 62v59l1 18 2 20 2 3 1-7h1v17l-3 1-1-2-1 1h-10l-13-5-9-6-5-6-5-10-1-6-1-119-3-23-4-9-10-12-9-6 3-1 11 8 2 4h2l7 12 2 5 2 18 1 121 3 13 6 8 5 4 10 5 3 1h8l1-1v-12l-1-18-1-128-2-20-5-17-6-10-10-11-7-5-13-5z" fill="#D6D4D1"/>
<path transform="translate(573,566)" d="m0 0 9 2 16 9 7 6 9 14 6 13 3 12 2 16 1 26v129l-2 3-2-8-2-18-1-20v-57l-1-62-2-14-5-17-6-10-6-7-5-4-15-7-6-1-2-4z" fill="#B9B7B2"/>
<path transform="translate(972,576)" d="m0 0 10 10 12 16 8 11v2h2l40 60 5 8v10l-13 22-10 14-9 14-12 17-6 8-9 11-12 17-3 3-2 4h-4v-5l9-12 11-13 13-18 26-38 14-20 2-5v-7l-7-12-14-21-12-19-13-18-12-16-8-10-7-10z" fill="#B9B7B2"/>
<path transform="translate(418,574)" d="m0 0h4l-1 8 1 9 1 27 1 12v127l-3 44-1 2-4-2-1-2v-9l4-27 1-24v-83l-1-49-4-24v-6z" fill="#B9B7B2"/>
<path transform="translate(779,567)" d="m0 0 9 1-3 3-9 2-12 5-13 8-13 10-3 4h-2l-2 4-4 6-6 10-7 17-4 18-2 14v39l3 22 1 4h-3l-4-15-1-6-1-16v-31l2-14 8-27 9-17 8-10 8-9 12-9 16-8z" fill="#BAB8B3"/>
<path transform="translate(541,564)" d="m0 0h19l11 1 2 2h-2v2l3 1-5 1-9-2h-32l-16 4-18 8-9 6-11 9-8 6-4-1-6-9-7-8-7-4-5-3-7-1-9 2v-5h18l9 3 10 8 7 8 5-2 19-13 16-8 9-3z" fill="#D4D2CF"/>
<path transform="translate(973,574)" d="m0 0h16v1h-12l3 5 9 10 7 10 10 13 11 16 8 12 15 22 6 9 1 4h2l3 6v12l-7 12-10 14-11 17-13 19-13 17-14 18-4 5-2-1 11-16 9-11 4-5 14-20 22-33 10-17v-10l-9-14-34-51-1-3h-2l-4-6-18-24v-2l-4-2-4-4-2 1v-3z" fill="#D6D4D1"/>
<path transform="translate(1173,580)" d="m0 0 1 3-10 13-12 16-8 11-14 20-10 15-7 11-6 10h-2l-1 9 4 9 14 20 6 8 7 11 12 18 10 13 9 12 2 5h2l9 13-1 5-6 1h-12l1-2 15-1-4-7-14-17-12-17-10-14-7-11-8-12-13-19-3-5-5-9-1-5 6-10 11-16 13-19 12-17 7-10 8-11h2l2-5 11-13z" fill="#D6D4D1"/>
<path transform="translate(1259,573)" d="m0 0h5l4 2 7 3-3 1-5-2h-8l2 54 2 114 5 19 6 11 6 8 2 1v2l4 2 10 6 15 5 9 2h14l18-2 22-6h2v2l-18 6-9 2h-36l-18-6-10-5-9-8-8-11-6-13-2-9-1-95-3-74-3 1-1 10h-1v-16l4-3z" fill="#D6D4D1"/>
<path transform="translate(1662,666)" d="m0 0 8 1 18 8 11 8 11 11 9 14 3 8 1 6v24l-2 10-4 10-8 12-9 9-10 6h-5l15-12 8-9 7-14 2-7v-21l-4-18-4-10-6-10-6-7-7-4-6-3-4-3-13-3-5-4z" fill="#B9B7B2"/>
<path transform="translate(1457,575)" d="m0 0 4 1v9l-3 22-1 34-1 79-1 15-2 1-2-21v-70l3-34 1-35z" fill="#B9B7B2"/>
<path transform="translate(1673,566)" d="m0 0h23l11 4 7 5 2 7-3 14-6 8-8 5-5 2h-11l-18-5-17-5-2-1v-2h11l13 5 12 2h14l6-2 6-10 3-10 1-8h-12l-22-4-6-2z" fill="#BAB8B3"/>
<path transform="translate(879,580)" d="m0 0 4 1 9 6 4 4 8 16 3 13 1 15-1 22-5 14-6 9-7 7-7 5 2 2-20 8-9 2h-8l3-4 20-7 10-5 4-3h2v-2l6-5 6-10 4-11 2-13v-14l-2-16-5-14-7-9-8-8z" fill="#D5D3D0"/>
<path transform="translate(885,766)" d="m0 0 4 1 7 6 4 7-1 8-3 7-38 9-13 1h-49v-1l-12-3-11-4v-2l9 2 15 4h40l19-3 12-3 21-3 7-5 1-5-3-6-4-5-5-3z" fill="#D5D3D0"/>
<path transform="translate(1598,566)" d="m0 0h6l3 3-15 5-12 5-9 6h-2l-2 4-5 5-6 7-4 8-3 11-1 7v25l-3-1-3-9v-19l4-12 6-12 8-10 9-9 13-8z" fill="#B9B7B2"/>
<path transform="translate(834,597)" d="m0 0 8 2 13 7 9 8 5 9v18l-2 8-6 9-5 4-5 1v2l-8 4-9 3-7 1h-9l1-3 27-7 6-3 6-5 3-6 2-8v-16l-4-11-7-6-13-5-6-2z" fill="#BAB8B3"/>
<path transform="translate(874,759)" d="m0 0h8l12 5 5 5 5 8 2 5v6l-4 5-6 1 1-5 2-4-1-8-7-8-3-2-5-1h-16l-11 2-13 4-15 1-2-2 18-5 25-5z" fill="#B9B7B2"/>
<path transform="translate(804,597)" d="m0 0 4 1-10 5-14 5-10 8-5 6-7 11-5 15-2 10v12l10 2v1h-11l-3-2-2-8 1-14 5-15 7-12 9-10 9-6 16-7z" fill="#B9B7B2"/>
<path transform="translate(791,565)" d="m0 0h57l15 2-2 2-6-1 2 2 3 2-9-1-17-3h-18l-21 2-25 7-15 8-12 9-3 1-2 4-8 10-8 13-3 8h-2l1-5 7-14 4-5 4-6h2l2-4 10-8 10-7 12-6 11-4 7-2-4-1v-2z" fill="#D4D2CF"/>
<path transform="translate(1145,573)" d="m0 0h28l8 1-3 3h-2v3h-2l1-5-26 2-12 5-8 6-5 3-8 10-6 10-8 13-4 6h-2l-2 5-1 2h-2l-1 3-1-3 12-20 10-15 9-13 6-7 11-7z" fill="#BAB8B3"/>
<path transform="translate(1563,755)" d="m0 0h7l4 3 2 1v2l10 3 12 4 11 4 11 1v1h-13l-12-3-7-3-15-5-4-3h-8l-9 7-6 9-1 2-1 10h2v3l14 3 12 2 14 3 8 2 3 2h-12l-9-2-13-4-17-2-4-5v-13l4-9h2l2-4 4-3h2l-1-5z" fill="#D6D4D1"/>
<path transform="translate(750,709)" d="m0 0h2l7 24 6 12 9 10 9 6 35 9 2 2h-18l-18-7-7-3-11-8-1-4-4-2-8-14-2-6-2-10z" fill="#B9B7B2"/>
<path transform="translate(1617,597)" d="m0 0h14l-2 2-19 5-10 4-7 8-2 7 1 8 6 9 7 6 15 8 1 2-7-1-11-6-10-8-5-8-3-10 4-10 8-8 14-7z" fill="#BAB8B3"/>
<path transform="translate(1553,757)" d="m0 0h3v4l-6 4-2 3h-2l-1 4-2 5v13l3 4 17 2 5 2 8 2 9 2 13 1v1h-25l-19-5-13-4-5-5 2-11 4-11 9-10z" fill="#BAB8B3"/>
<path transform="translate(823,596)" d="m0 0h14l13 4 10 7 7 8 3 7 1 5v16l-3 10-9 10-9 5-8 4-6 2h-21l3-3v2l16-2 14-5 3-1v-2l6-3 5-5 5-8 1-6v-18l-6-10-7-6-15-8-6-1-2 3-9-3z" fill="#D6D4D1"/>
<path transform="translate(1019,577)" d="m0 0 5 1 10 8 9 12 9 15 12 19 6 10 5 6v3l-4-2-3-5-3-3-7-11-10-15-7-9-3-6-7-11-5-6-7-4z" fill="#B9B7B2"/>
<path transform="translate(1665,670)" d="m0 0 10 3 7 2 5 4 7 3 5 5 8 9 5 10 4 13 2 11v21l-4 12-4 7h-2l2-5 3-9 1-7v-25l-4-16-6-10-13-13-8-6-10-4-7-2z" fill="#D6D4D1"/>
<path transform="translate(1410,768)" d="m0 0 5 1 6 12 14 8 9 5 1 2h-9l-11-4-8-7-1-5-3-7-6 2-2 2-5 2-11 9-9 6-4-1 11-8 9-7z" fill="#D5D3D0"/>
<path transform="translate(1567,756)" d="m0 0h13l9 4 21 6 12 4 1 2-3 1h-11l-11-4-19-6-3-2v-2l-9-2z" fill="#B8B6B1"/>
<path transform="translate(514,566)" d="m0 0h5l-1 3-15 5-15 8-10 7-5 5-5 4-5-1-6-9-2-4 4 1 6 7 5-2 19-13 16-8z" fill="#BAB8B3"/>
<path transform="translate(1605,565)" d="m0 0h37v1l-24 3-18 4-16 6-10 6-10 9-8 11-5 15h-2l1-6 3-9 6-9 6-7 6-5 13-8 13-5 7-2z" fill="#D6D4D1"/>
<path transform="translate(1709,575)" d="m0 0h3v8l-4 12-6 9-6 2h-14l-15-3-11-4-10-1-1 2-3-1-11-1h-14l-9 1 1-2 11-2h22l18 2 15 5 10 2h10l6-3 5-7 3-8z" fill="#D6D4D1"/>
<path transform="translate(541,564)" d="m0 0h19l11 1 2 2h-2v2l3 1-5 1-9-2h-32l-16 3 1-2 5-2 1-2 4-1z" fill="#D6D4D1"/>
<path transform="translate(1676,736)" d="m0 0 1 2-2 13-6 9-9 7-12 5-4 1h-8l-1-3 13-5 12-3 4-2 1-2h2l2-4 4-9 2-8z" fill="#B9B7B2"/>
<path transform="translate(1455,746)" d="m0 0h1l3 23 2 11v11l-3 3-3-1-1-27v-17z" fill="#B9B7B2"/>
<path transform="translate(738,779)" d="m0 0 9 6 16 8 27 9 7 1v1h-13l-13-4-16-6-11-7-6-5z" fill="#BCBAB5"/>
<path transform="translate(785,570)" d="m0 0m-5 1h5l-1 2-16 5-13 7-12 9-3 1-2 4-8 10-8 13-3 8h-2l1-5 7-14 4-5 4-6h2l2-4 10-8 10-7 12-6z" fill="#D6D4D1"/>
<path transform="translate(1145,573)" d="m0 0h28l8 1-3 3h-2v3h-2l1-5-26 2-12 5-8 6-2-1 8-7 3-3 1-3z" fill="#D6D4D1"/>
<path transform="translate(531,596)" d="m0 0h12v1h-9v2h-11l-16 4-16 6h-4l4-4 9-3v-2l8-1h3v-2z" fill="#BBB9B4"/>
<path transform="translate(1393,755)" d="m0 0h2l-1 3h-2v2l-14 7-14 5h-9v-2l15-5 13-4z" fill="#BBB9B4"/>
<path transform="translate(1411,772)" d="m0 0 3 1 4 8-1 3-5-7-5 1-11 8-10 7-6 3 2-4 5-4 12-9 2-2 5-2z" fill="#BCBAB5"/>
<path transform="translate(1434,574)" d="m0 0 6 1-2 2-11 6-7 5-5 7-3-1 2-5 7-8 10-6z" fill="#BAB8B3"/>
<path transform="translate(465,776)" d="m0 0 2 1-1 6-6 9-7 6-3 2-7 1v-2l9-5h2l2-4h2l2-5z" fill="#BCBAB5"/>
<path transform="translate(512,570)" d="m0 0m-4 1h4v2l-18 8-9 6-11 9-4 2 6-7 5-5 14-9z" fill="#D6D4D1"/>
<path transform="translate(834,565)" d="m0 0h14l15 2-2 2-6-1 2 2 3 2-9-1-17-3z" fill="#D6D4D1"/>
<path transform="translate(1680,794)" d="m0 0 3 1-4 3-18 6h-14v-1l28-7z" fill="#BCBAB5"/>
<path transform="translate(1126,588)" d="m0 0v3l-8 10-3 6-11 17-2 3h-2l2-4 11-19 10-13z" fill="#D6D4D1"/>
<path transform="translate(1673,566)" d="m0 0h12v4l15 3v1h-7l-19-4-2-2z" fill="#D6D4D1"/>
<path transform="translate(553,565)" d="m0 0h18l2 2h-2v2l3 1-5 1-9-2v-2l-7-1z" fill="#CDCBC8"/>
<path transform="translate(1441,573)" d="m0 0h9l1 3-10 2-12 6h-3l6-5 6-3v-2z" fill="#D7D5D2"/>
<path transform="translate(1275,579)" d="m0 0 5 1 9 6 6 8 3 7v5l-2-1-3-10-9-10-9-5z" fill="#D6D4D1"/>
<path transform="translate(510,596)" d="m0 0h21v1h-20v2l-8 1h-3v2l-9 3 4-4 11-4z" fill="#D6D4D1"/>
<path transform="translate(1634,770)" d="m0 0 2 2 7 1v1h-23l3-3z" fill="#D4D2CF"/>
<path transform="translate(483,611)" d="m0 0 1 3-8 6-4 4h-2l2-5 8-7z" fill="#BEBCB7"/>
<path transform="translate(812,595)" d="m0 0h8l3 1v2l-18 2 2-4z" fill="#D5D3D0"/>
<path transform="translate(531,596)" d="m0 0h12v1h-9v2h-11l-7 1v-2l3-1z" fill="#C7C5C1"/>
<path transform="translate(721,759)" d="m0 0 5 5 6 9h-3l-8-11z" fill="#BEBCB7"/>
<path transform="translate(1422,788)" d="m0 0h5l5 4v2l-5-1-5-3z" fill="#BCBAB5"/>
<path transform="translate(1438,576)" d="m0 0m-3 1h3v2l-10 6-2-1 6-5z" fill="#D6D4D1"/>
</svg>
